<?xml version="1.0" encoding="UTF-8" standalone="no"?>
<!-- Created with Inkscape (http://www.inkscape.org/) -->

<svg
   width="32"
   height="32"
   viewBox="0 0 32 32"
   version="1.1"
   id="svg1"
   inkscape:version="1.3.2 (091e20e, 2023-11-25, custom)"
   sodipodi:docname="ClearFormatting.svg"
   xmlns:inkscape="http://www.inkscape.org/namespaces/inkscape"
   xmlns:sodipodi="http://sodipodi.sourceforge.net/DTD/sodipodi-0.dtd"
   xmlns="http://www.w3.org/2000/svg"
   xmlns:svg="http://www.w3.org/2000/svg">
  <sodipodi:namedview
     id="namedview1"
     pagecolor="#ffffff"
     bordercolor="#000000"
     borderopacity="0.25"
     inkscape:showpageshadow="2"
     inkscape:pageopacity="0.0"
     inkscape:pagecheckerboard="false"
     inkscape:deskcolor="#d1d1d1"
     inkscape:document-units="px"
     showgrid="true"
     inkscape:zoom="13.04833"
     inkscape:cx="-0.49814804"
     inkscape:cy="18.124925"
     inkscape:window-width="2560"
     inkscape:window-height="1377"
     inkscape:window-x="2872"
     inkscape:window-y="180"
     inkscape:window-maximized="1"
     inkscape:current-layer="layer1">
    <inkscape:grid
       id="grid1"
       units="mm"
       originx="0"
       originy="0"
       spacingx="0.99999998"
       spacingy="1"
       empcolor="#0099e5"
       empopacity="0.30196078"
       color="#0099e5"
       opacity="0.14901961"
       empspacing="5"
       dotted="false"
       gridanglex="30"
       gridanglez="30"
       visible="true" />
  </sodipodi:namedview>
  <defs
     id="defs1" />
  <g
     inkscape:label="Layer 1"
     inkscape:groupmode="layer"
     id="layer1">
    <path
       id="text1"
       style="font-style:normal;font-variant:normal;font-weight:300;font-stretch:normal;font-size:40.527px;font-family:Calibri;-inkscape-font-specification:'Calibri Light';fill:#000000;fill-opacity:1;stroke:#000000;stroke-width:1.36852;stroke-linecap:round;stroke-linejoin:miter;stroke-dasharray:none;stroke-opacity:0"
       d="m 12.405356,0.24420785 c -0.236394,0 -0.451759,0.013643 -0.646437,0.042036 -0.180773,0.014196 -0.340625,0.041482 -0.479681,0.084072 -0.12515,0.042589 -0.229492,0.1081862 -0.312926,0.1933659 -0.08343,0.070984 -0.147685,0.1617633 -0.189402,0.2753364 L 1.3294562,27.052721 c -0.083434,0.212949 -0.1255818,0.385071 -0.1255818,0.51284 0.013905,0.127771 0.062736,0.225371 0.1461689,0.296355 0.09734,0.07098 0.2438285,0.120834 0.4385068,0.149228 0.1946783,0.02839 0.4367685,0.04415 0.728786,0.04415 0.2642063,0 0.4795701,-0.01575 0.6464372,-0.04415 0.1807727,-0.02839 0.3205806,-0.0625 0.4179197,-0.105094 0.09734,-0.05679 0.1728952,-0.122382 0.2285176,-0.193366 0.055621,-0.07098 0.097771,-0.154943 0.1255817,-0.254317 l 2.4828135,-7.30377 H 17.206285 v -0.0042 h 3.785982 L 14.031743,0.83901845 c -0.04172,-0.113573 -0.10391,-0.2043533 -0.187343,-0.2753364 -0.06953,-0.0851797 -0.17387,-0.1507761 -0.312925,-0.1933659 -0.125152,-0.0425899 -0.285003,-0.0698757 -0.479681,-0.0840722 -0.180773,-0.0283933 -0.396137,-0.0420361 -0.646438,-0.0420361 z M 12.259186,3.161512 h 0.02058 l 5.214739,14.819822 H 7.1700371 Z" />
    <rect
       style="fill:#e268ef;fill-opacity:1;stroke:#750080;stroke-width:0.666003;stroke-linecap:round;stroke-linejoin:miter;stroke-dasharray:none;stroke-opacity:1"
       id="rect17"
       width="7.7086763"
       height="7.6548486"
       x="28.472208"
       y="-4.7605543"
       transform="matrix(0.5672046,0.82357692,-0.81236622,0.5831476,0,0)" />
    <rect
       style="fill:#d700ef;fill-opacity:0;stroke:#750080;stroke-width:0.666003;stroke-linecap:round;stroke-linejoin:miter;stroke-dasharray:none;stroke-opacity:1"
       id="rect18"
       width="7.7086763"
       height="7.6548486"
       x="28.47838"
       y="-12.539147"
       transform="matrix(0.5672046,0.82357692,-0.81236622,0.5831476,0,0)" />
  </g>
</svg>
