<?xml version="1.0" encoding="UTF-8" standalone="no"?>
<!-- Created with Inkscape (http://www.inkscape.org/) -->

<svg
   width="32"
   height="32"
   viewBox="0 0 32 32"
   version="1.1"
   id="svg1"
   inkscape:version="1.3.2 (091e20e, 2023-11-25, custom)"
   sodipodi:docname="Clipboard.svg"
   xmlns:inkscape="http://www.inkscape.org/namespaces/inkscape"
   xmlns:sodipodi="http://sodipodi.sourceforge.net/DTD/sodipodi-0.dtd"
   xmlns="http://www.w3.org/2000/svg"
   xmlns:svg="http://www.w3.org/2000/svg">
  <sodipodi:namedview
     id="namedview1"
     pagecolor="#ffffff"
     bordercolor="#000000"
     borderopacity="0.25"
     inkscape:showpageshadow="2"
     inkscape:pageopacity="0.0"
     inkscape:pagecheckerboard="false"
     inkscape:deskcolor="#d1d1d1"
     inkscape:document-units="px"
     showgrid="true"
     inkscape:zoom="26.09666"
     inkscape:cx="11.24665"
     inkscape:cy="17.07115"
     inkscape:window-width="2560"
     inkscape:window-height="1377"
     inkscape:window-x="2872"
     inkscape:window-y="180"
     inkscape:window-maximized="1"
     inkscape:current-layer="layer1">
    <inkscape:grid
       id="grid1"
       units="mm"
       originx="0"
       originy="0"
       spacingx="0.99999998"
       spacingy="1"
       empcolor="#0099e5"
       empopacity="0.30196078"
       color="#0099e5"
       opacity="0.14901961"
       empspacing="5"
       dotted="false"
       gridanglex="30"
       gridanglez="30"
       visible="true" />
  </sodipodi:namedview>
  <defs
     id="defs1" />
  <g
     inkscape:label="Layer 1"
     inkscape:groupmode="layer"
     id="layer1">
    <path
       id="rect1"
       style="fill:#ffffff;fill-opacity:1;stroke:#000000;stroke-width:1.26367;stroke-dasharray:none;stroke-opacity:1"
       d="M 4.6669727,4.7430645 C 4.1989742,4.7459643 3.8224883,5.0260378 3.8224883,5.3777743 V 30.67271 c 0,0.351737 0.3764732,0.63471 0.8444844,0.63471 H 27.298236 c 0.468011,0 0.844484,-0.282973 0.844484,-0.63471 V 5.3777743 c 0,-0.3517365 -0.376524,-0.6288315 -0.844484,-0.6347098 L 21.216481,4.6666681 C 21.101767,4.6652271 20.724376,3.1598208 20.15742,2.5715658 19.543488,1.9345701 18.691943,1.4078235 17.764398,1.1674461 16.582941,0.86126552 15.232511,0.87914366 14.058636,1.2056443 13.147899,1.4589558 12.299961,1.9779371 11.720894,2.6258953 11.19591,3.2133376 10.811629,4.8007394 10.831664,4.7048662 Z"
       sodipodi:nodetypes="sssssssssaaaacs" />
    <path
       id="rect2"
       style="fill:#000000;fill-opacity:0;stroke:#000000;stroke-width:1.0754;stroke-dasharray:none;stroke-opacity:1"
       d="M 9.0715802,4.5005594 V 10.440012 H 22.772752 V 4.5005594"
       sodipodi:nodetypes="cccc" />
  </g>
</svg>
