<?xml version="1.0" encoding="UTF-8" standalone="no"?>
<!-- Created with Inkscape (http://www.inkscape.org/) -->

<svg
   width="32"
   height="32"
   viewBox="0 0 32 32"
   version="1.1"
   id="svg1"
   inkscape:version="1.3.2 (091e20e, 2023-11-25, custom)"
   sodipodi:docname="Copy.svg"
   xmlns:inkscape="http://www.inkscape.org/namespaces/inkscape"
   xmlns:sodipodi="http://sodipodi.sourceforge.net/DTD/sodipodi-0.dtd"
   xmlns="http://www.w3.org/2000/svg"
   xmlns:svg="http://www.w3.org/2000/svg">
  <sodipodi:namedview
     id="namedview1"
     pagecolor="#ffffff"
     bordercolor="#000000"
     borderopacity="0.25"
     inkscape:showpageshadow="2"
     inkscape:pageopacity="0.0"
     inkscape:pagecheckerboard="false"
     inkscape:deskcolor="#d1d1d1"
     inkscape:document-units="px"
     showgrid="true"
     inkscape:zoom="26.09666"
     inkscape:cx="9.5606104"
     inkscape:cy="17.07115"
     inkscape:window-width="2560"
     inkscape:window-height="1377"
     inkscape:window-x="2872"
     inkscape:window-y="180"
     inkscape:window-maximized="1"
     inkscape:current-layer="layer1">
    <inkscape:grid
       id="grid1"
       units="mm"
       originx="0"
       originy="0"
       spacingx="0.99999998"
       spacingy="1"
       empcolor="#0099e5"
       empopacity="0.30196078"
       color="#0099e5"
       opacity="0.14901961"
       empspacing="5"
       dotted="false"
       gridanglex="30"
       gridanglez="30"
       visible="true" />
  </sodipodi:namedview>
  <defs
     id="defs1" />
  <g
     inkscape:label="Layer 1"
     inkscape:groupmode="layer"
     id="layer1">
    <path
       id="path4"
       style="fill:#fafafa;fill-opacity:1;stroke:#000000;stroke-width:1.32942"
       d="m 1.0433471,1.9201749 11.1223289,0.042452 c 0.117589,4.487e-4 6.325293,6.7739229 6.325293,6.9620695 V 23.697866 c 0,0.188147 -0.09467,0.339614 -0.212257,0.339614 H 1.0433471 c -0.11759128,0 -0.2122578,-0.151467 -0.2122578,-0.339614 V 2.2597884 c 0,-0.1881455 0.0946653,-0.3400621 0.2122578,-0.3396135 z"
       sodipodi:nodetypes="sssssssss" />
    <path
       id="rect1"
       style="fill:#fafafa;fill-opacity:1;stroke:#000000;stroke-width:1.32942"
       d="m 13.778838,7.7129549 11.122329,0.042452 c 0.11759,4.487e-4 6.325293,6.7739231 6.325293,6.9620691 v 14.77317 c 0,0.188146 -0.09466,0.339612 -0.212259,0.339612 H 13.778838 c -0.117592,0 -0.212258,-0.151466 -0.212258,-0.339612 V 8.0525683 c 0,-0.1881455 0.09466,-0.3400621 0.212258,-0.3396134 z"
       sodipodi:nodetypes="sssssssss" />
    <path
       style="fill:#000000;fill-opacity:0;stroke:#000000;stroke-width:1.485;stroke-linejoin:round;stroke-dasharray:none;stroke-opacity:1"
       d="m 31.782674,15.342583 -7.774593,-0.04322 0.01652,-7.3936625"
       id="path3"
       sodipodi:nodetypes="ccc" />
    <path
       style="fill:#fafafa;fill-opacity:1;stroke:#000000;stroke-width:1.185;stroke-linejoin:round;stroke-dasharray:none;stroke-opacity:1"
       d="m 15.749142,20.385751 c 13.105125,0 13.105125,0 13.105125,0"
       id="path5" />
    <path
       style="fill:#fafafa;fill-opacity:1;stroke:#000000;stroke-width:1.185;stroke-linejoin:round;stroke-dasharray:none;stroke-opacity:1"
       d="m 15.749142,25.022359 c 13.105125,0 13.105125,0 13.105125,0"
       id="path6" />
  </g>
</svg>
