<?xml version="1.0" encoding="UTF-8" standalone="no"?>
<!-- Created with Inkscape (http://www.inkscape.org/) -->

<svg
   width="32"
   height="32"
   viewBox="0 0 32 32"
   version="1.1"
   id="svg1"
   inkscape:version="1.3.2 (091e20e, 2023-11-25, custom)"
   xml:space="preserve"
   sodipodi:docname="Paste.svg"
   xmlns:inkscape="http://www.inkscape.org/namespaces/inkscape"
   xmlns:sodipodi="http://sodipodi.sourceforge.net/DTD/sodipodi-0.dtd"
   xmlns="http://www.w3.org/2000/svg"
   xmlns:svg="http://www.w3.org/2000/svg"><sodipodi:namedview
     id="namedview1"
     pagecolor="#ffffff"
     bordercolor="#000000"
     borderopacity="0.25"
     inkscape:showpageshadow="2"
     inkscape:pageopacity="0.0"
     inkscape:pagecheckerboard="false"
     inkscape:deskcolor="#d1d1d1"
     inkscape:document-units="px"
     showgrid="true"
     inkscape:zoom="26.09666"
     inkscape:cx="9.5606104"
     inkscape:cy="17.07115"
     inkscape:window-width="2560"
     inkscape:window-height="1377"
     inkscape:window-x="2872"
     inkscape:window-y="180"
     inkscape:window-maximized="1"
     inkscape:current-layer="layer1"><inkscape:grid
       id="grid1"
       units="mm"
       originx="0"
       originy="0"
       spacingx="0.99999998"
       spacingy="1"
       empcolor="#0099e5"
       empopacity="0.30196078"
       color="#0099e5"
       opacity="0.14901961"
       empspacing="5"
       dotted="false"
       gridanglex="30"
       gridanglez="30"
       visible="true" /></sodipodi:namedview><defs
     id="defs1" /><g
     inkscape:label="Layer 1"
     inkscape:groupmode="layer"
     id="layer1"><path
       id="rect1"
       style="fill:#ffffff;fill-opacity:1;stroke:#000000;stroke-width:1.14822;stroke-dasharray:none;stroke-opacity:1"
       d="M 1.6751961,4.0350496 C 1.249956,4.037687 0.90786756,4.2921692 0.90786756,4.6117694 V 27.595643 c 0,0.3196 0.34207694,0.57672 0.76732854,0.57672 H 22.238763 c 0.425251,0 0.767327,-0.25712 0.767327,-0.57672 V 4.6117694 c 0,-0.3196002 -0.342122,-0.5713786 -0.767327,-0.5767198 L 16.712665,3.9656331 C 16.608431,3.9643238 16.265521,2.5964584 15.750365,2.0619492 15.192524,1.4831523 14.41878,1.0045317 13.57598,0.7861162 12.502467,0.50790984 11.275417,0.52415451 10.208793,0.82082442 9.3812656,1.0509924 8.6107992,1.5225571 8.0846384,2.1113148 7.6076193,2.6450856 7.258448,4.0874551 7.2766525,4.0003412 Z"
       sodipodi:nodetypes="sssssssssaaaacs" /><path
       id="rect2"
       style="fill:#000000;fill-opacity:0;stroke:#000000;stroke-width:0.977147;stroke-dasharray:none;stroke-opacity:1"
       d="M 5.6773782,3.8147009 V 9.2114975 H 18.126748 V 3.8147009"
       sodipodi:nodetypes="cccc" /><g
       inkscape:label="Layer 1"
       id="layer1-6"
       transform="matrix(1.1508196,0,0,1.0905491,-3.8814859,-3.1894032)"><rect
         style="fill:#ffffff;fill-opacity:1;stroke:#000000;stroke-width:1.185;stroke-linejoin:round;stroke-opacity:1"
         id="rect3"
         width="13.028487"
         height="17.780052"
         x="17.285454"
         y="13.693943"
         rx="0.3448714"
         ry="0.30655265" /></g></g></svg>
